<svg id="e7u0irdwj12y1" xmlns="http://www.w3.org/2000/svg" xmlns:xlink="http://www.w3.org/1999/xlink" viewBox="0 0 2245 85" shape-rendering="geometricPrecision" text-rendering="geometricPrecision"><style><![CDATA[#e7u0irdwj12y4_ts {animation: e7u0irdwj12y4_ts__ts 3000ms linear infinite alternate forwards}@keyframes e7u0irdwj12y4_ts__ts { 0% {transform: translate(1163.900024px,42.200003px) scale(1,1)} 40% {transform: translate(1163.900024px,42.200003px) scale(1.100000,1.100000)} 100% {transform: translate(1163.900024px,42.200003px) scale(1,1)} }#e7u0irdwj12y5_ts {animation: e7u0irdwj12y5_ts__ts 3000ms linear infinite alternate forwards}@keyframes e7u0irdwj12y5_ts__ts { 0% {transform: translate(1194.599976px,42.500000px) scale(1,1);animation-timing-function: cubic-bezier(0.645000,0.045000,0.355000,1)} 73.333333% {transform: translate(1194.599976px,42.500000px) scale(1.100000,1.100000);animation-timing-function: cubic-bezier(0.645000,0.045000,0.355000,1)} 100% {transform: translate(1194.599976px,42.500000px) scale(1,1)} }#e7u0irdwj12y6_ts {animation: e7u0irdwj12y6_ts__ts 3000ms linear infinite alternate forwards}@keyframes e7u0irdwj12y6_ts__ts { 0% {transform: translate(1124.900024px,42.500000px) scale(1,1);animation-timing-function: cubic-bezier(0.645000,0.045000,0.355000,1)} 50% {transform: translate(1124.900024px,42.500000px) scale(1.150000,1.150000);animation-timing-function: cubic-bezier(0.645000,0.045000,0.355000,1)} 100% {transform: translate(1124.900024px,42.500000px) scale(1,1)} }#e7u0irdwj12y7_ts {animation: e7u0irdwj12y7_ts__ts 3000ms linear infinite alternate forwards}@keyframes e7u0irdwj12y7_ts__ts { 0% {transform: translate(1228px,42.500002px) scale(1,1);animation-timing-function: cubic-bezier(0.645000,0.045000,0.355000,1)} 66.666667% {transform: translate(1228px,42.500002px) scale(0.900000,0.900000);animation-timing-function: cubic-bezier(0.645000,0.045000,0.355000,1)} 100% {transform: translate(1228px,42.500002px) scale(1,1)} }#e7u0irdwj12y46_ts {animation: e7u0irdwj12y46_ts__ts 3000ms linear infinite alternate forwards}@keyframes e7u0irdwj12y46_ts__ts { 0% {transform: translate(1081.300049px,42.500002px) scale(1,1)} 50% {transform: translate(1081.300049px,42.500002px) scale(0.950000,0.950000)} 100% {transform: translate(1081.300049px,42.500002px) scale(1,1)} }#e7u0irdwj12y47_ts {animation: e7u0irdwj12y47_ts__ts 3000ms linear infinite alternate forwards}@keyframes e7u0irdwj12y47_ts__ts { 0% {transform: translate(1050.346440px,42.453660px) rotate(-68.370950deg) scale(1.000011,1.000011);animation-timing-function: cubic-bezier(0.645000,0.045000,0.355000,1)} 33.333333% {transform: translate(1050.346440px,42.453660px) rotate(-68.370950deg) scale(0.900000,0.900000);animation-timing-function: cubic-bezier(0.645000,0.045000,0.355000,1)} 100% {transform: translate(1050.346440px,42.453660px) rotate(-68.370950deg) scale(1.000011,1.000011)} }#e7u0irdwj12y48_ts {animation: e7u0irdwj12y48_ts__ts 3000ms linear infinite alternate forwards}@keyframes e7u0irdwj12y48_ts__ts { 0% {transform: translate(1016.977700px,42.432750px) rotate(-79.100191deg) scale(1.000041,1.000041);animation-timing-function: cubic-bezier(0.645000,0.045000,0.355000,1)} 23.333333% {transform: translate(1016.977700px,42.432750px) rotate(-79.100191deg) scale(1.050000,1.050000);animation-timing-function: cubic-bezier(0.645000,0.045000,0.355000,1)} 100% {transform: translate(1016.977700px,42.432750px) rotate(-79.100191deg) scale(1.000041,1.000041)} }]]></style><rect id="e7u0irdwj12y2" width="2245" height="85" rx="0" ry="0" opacity="0.1" fill="rgb(0,0,0)" stroke="none" stroke-width="1"/><g id="e7u0irdwj12y3"><g id="e7u0irdwj12y4_ts" transform="translate(1163.900024,42.200003) scale(1,1)"><circle id="e7u0irdwj12y4" r="30.600000" transform="translate(-0.000024,-0.000003)" fill="rgb(255,255,255)" stroke="none" stroke-width="1"/></g><g id="e7u0irdwj12y5_ts" transform="translate(1194.599976,42.500000) scale(1,1)"><circle id="e7u0irdwj12y5" r="33.400000" transform="translate(0.000024,0)" fill="rgb(255,255,255)" stroke="none" stroke-width="1"/></g><g id="e7u0irdwj12y6_ts" transform="translate(1124.900024,42.500000) scale(1,1)"><circle id="e7u0irdwj12y6" r="33.400000" transform="translate(-0.000024,0)" fill="rgb(255,255,255)" stroke="none" stroke-width="1"/></g><g id="e7u0irdwj12y7_ts" transform="translate(1228,42.500002) scale(1,1)"><circle id="e7u0irdwj12y7" r="25.900000" transform="translate(0,-0.000002)" fill="rgb(255,255,255)" stroke="none" stroke-width="1"/></g><circle id="e7u0irdwj12y8" r="28.900000" transform="matrix(1 0 0 1 1253.90000000000009 42.50000000000000)" fill="rgb(255,255,255)" stroke="none" stroke-width="1"/><circle id="e7u0irdwj12y9" r="33.400000" transform="matrix(1 0 0 1 1282.79999999999995 42.50000000000000)" fill="rgb(255,255,255)" stroke="none" stroke-width="1"/><circle id="e7u0irdwj12y10" r="33.400000" transform="matrix(1 0 0 1 1398 42.50000000000000)" fill="rgb(255,255,255)" stroke="none" stroke-width="1"/><circle id="e7u0irdwj12y11" r="28.900000" transform="matrix(1 0 0 1 1316.20000000000005 42.50000000000000)" fill="rgb(255,255,255)" stroke="none" stroke-width="1"/><circle id="e7u0irdwj12y12" r="28.900000" transform="matrix(1 0 0 1 1369.09999999999991 42.50000000000000)" fill="rgb(255,255,255)" stroke="none" stroke-width="1"/><circle id="e7u0irdwj12y13" r="28.900000" transform="matrix(1 0 0 1 1431.40000000000009 42.50000000000000)" fill="rgb(255,255,255)" stroke="none" stroke-width="1"/><circle id="e7u0irdwj12y14" r="24.100000" transform="matrix(1 0 0 1 1345 42.50000000000000)" fill="rgb(255,255,255)" stroke="none" stroke-width="1"/><circle id="e7u0irdwj12y15" r="24.100000" transform="matrix(1 0 0 1 1460.20000000000005 42.50000000000000)" fill="rgb(255,255,255)" stroke="none" stroke-width="1"/><circle id="e7u0irdwj12y16" r="21.700000" transform="matrix(1 0 0 1 1484.29999999999995 42.50000000000000)" fill="rgb(255,255,255)" stroke="none" stroke-width="1"/><circle id="e7u0irdwj12y17" r="21.700000" transform="matrix(1 0 0 1 1586.70000000000005 42.50000000000000)" fill="rgb(255,255,255)" stroke="none" stroke-width="1"/><circle id="e7u0irdwj12y18" r="27.200000" transform="matrix(1 0 0 1 1608.40000000000009 42.50000000000000)" fill="rgb(255,255,255)" stroke="none" stroke-width="1"/><circle id="e7u0irdwj12y19" r="30.300000" transform="matrix(1 0 0 1 1635.50000000000000 42.50000000000000)" fill="rgb(255,255,255)" stroke="none" stroke-width="1"/><circle id="e7u0irdwj12y20" r="25.900000" transform="matrix(1 0 0 1 1665.79999999999995 42.50000000000000)" fill="rgb(255,255,255)" stroke="none" stroke-width="1"/><circle id="e7u0irdwj12y21" r="29.500000" transform="matrix(1 0 0 1 1691.70000000000005 42.50000000000000)" fill="rgb(255,255,255)" stroke="none" stroke-width="1"/><circle id="e7u0irdwj12y22" r="25.900000" transform="matrix(1 0 0 1 1721.29999999999995 42.50000000000000)" fill="rgb(255,255,255)" stroke="none" stroke-width="1"/><circle id="e7u0irdwj12y23" r="24.100000" transform="matrix(1 0 0 1 1747.20000000000005 42.50000000000000)" fill="rgb(255,255,255)" stroke="none" stroke-width="1"/><circle id="e7u0irdwj12y24" r="25.900000" transform="matrix(1 0 0 1 1771.29999999999995 42.50000000000000)" fill="rgb(255,255,255)" stroke="none" stroke-width="1"/><circle id="e7u0irdwj12y25" r="21.700000" transform="matrix(1 0 0 1 1797.20000000000005 42.50000000000000)" fill="rgb(255,255,255)" stroke="none" stroke-width="1"/><circle id="e7u0irdwj12y26" r="27.200000" transform="matrix(1 0 0 1 1818.79999999999995 42.50000000000000)" fill="rgb(255,255,255)" stroke="none" stroke-width="1"/><circle id="e7u0irdwj12y27" r="30.300000" transform="matrix(1 0 0 1 1846 42.50000000000000)" fill="rgb(255,255,255)" stroke="none" stroke-width="1"/><circle id="e7u0irdwj12y28" r="28.900000" transform="matrix(1 0 0 1 1876.29999999999995 42.50000000000000)" fill="rgb(255,255,255)" stroke="none" stroke-width="1"/><circle id="e7u0irdwj12y29" r="20" transform="matrix(1 0 0 1 1905.20000000000005 42.50000000000000)" fill="rgb(255,255,255)" stroke="none" stroke-width="1"/><circle id="e7u0irdwj12y30" r="24.100000" transform="matrix(1 0 0 1 1925.20000000000005 42.50000000000000)" fill="rgb(255,255,255)" stroke="none" stroke-width="1"/><circle id="e7u0irdwj12y31" r="25.900000" transform="matrix(1 0 0 1 1949.20000000000005 42.50000000000000)" fill="rgb(255,255,255)" stroke="none" stroke-width="1"/><circle id="e7u0irdwj12y32" r="24.100000" transform="matrix(1 0 0 1 1975.20000000000005 42.50000000000000)" fill="rgb(255,255,255)" stroke="none" stroke-width="1"/><circle id="e7u0irdwj12y33" r="20" transform="matrix(1 0 0 1 1999.20000000000005 42.50000000000000)" fill="rgb(255,255,255)" stroke="none" stroke-width="1"/><circle id="e7u0irdwj12y34" r="25.900000" transform="matrix(1 0 0 1 2019.20000000000005 42.50000000000000)" fill="rgb(255,255,255)" stroke="none" stroke-width="1"/><ellipse id="e7u0irdwj12y35" rx="24.100000" ry="24.100000" transform="matrix(0.37910000000000 -0.92540000000000 0.92540000000000 0.37910000000000 2045.12690999999950 42.44621000000006)" fill="rgb(255,255,255)" stroke="none" stroke-width="1"/><ellipse id="e7u0irdwj12y36" rx="28.900000" ry="28.900000" transform="matrix(0.17260000000000 -0.98500000000000 0.98500000000000 0.17260000000000 2069.18641999999818 42.48350000000005)" fill="rgb(255,255,255)" stroke="none" stroke-width="1"/><circle id="e7u0irdwj12y37" r="25.900000" transform="matrix(1 0 0 1 2098.09999999999991 42.50000000000000)" fill="rgb(255,255,255)" stroke="none" stroke-width="1"/><circle id="e7u0irdwj12y38" r="20" transform="matrix(1 0 0 1 2222.90000000000009 42.50000000000000)" fill="rgb(255,255,255)" stroke="none" stroke-width="1"/><circle id="e7u0irdwj12y39" r="25.900000" transform="matrix(1 0 0 1 2202.90000000000009 42.50000000000000)" fill="rgb(255,255,255)" stroke="none" stroke-width="1"/><circle id="e7u0irdwj12y40" r="24.100000" transform="matrix(1 0 0 1 2176.90000000000009 42.50000000000000)" fill="rgb(255,255,255)" stroke="none" stroke-width="1"/><circle id="e7u0irdwj12y41" r="28.900000" transform="matrix(1 0 0 1 2152.90000000000009 42.50000000000000)" fill="rgb(255,255,255)" stroke="none" stroke-width="1"/><circle id="e7u0irdwj12y42" r="25.900000" transform="matrix(1 0 0 1 2124 42.50000000000000)" fill="rgb(255,255,255)" stroke="none" stroke-width="1"/><circle id="e7u0irdwj12y43" r="25.900000" transform="matrix(1 0 0 1 1506 42.50000000000000)" fill="rgb(255,255,255)" stroke="none" stroke-width="1"/><circle id="e7u0irdwj12y44" r="25.900000" transform="matrix(1 0 0 1 1560.79999999999995 42.50000000000000)" fill="rgb(255,255,255)" stroke="none" stroke-width="1"/><circle id="e7u0irdwj12y45" r="28.900000" transform="matrix(1 0 0 1 1531.90000000000009 42.50000000000000)" fill="rgb(255,255,255)" stroke="none" stroke-width="1"/><g id="e7u0irdwj12y46_ts" transform="translate(1081.300049,42.500002) scale(1,1)"><circle id="e7u0irdwj12y46" r="30.900000" transform="translate(-0.000049,-0.000002)" fill="rgb(255,255,255)" stroke="none" stroke-width="1"/></g><g id="e7u0irdwj12y47_ts" transform="translate(1050.346440,42.453660) rotate(-68.370950) scale(1.000011,1.000011)"><ellipse id="e7u0irdwj12y47" rx="33.400000" ry="33.400000" transform="translate(-0,-0)" fill="rgb(255,255,255)" stroke="none" stroke-width="1"/></g><g id="e7u0irdwj12y48_ts" transform="translate(1016.977700,42.432750) rotate(-79.100191) scale(1.000041,1.000041)"><ellipse id="e7u0irdwj12y48" rx="25.900000" ry="25.900000" transform="translate(0,0)" fill="rgb(255,255,255)" stroke="none" stroke-width="1"/></g><circle id="e7u0irdwj12y49" r="28.900000" transform="matrix(1 0 0 1 991.10000000000002 42.50000000000000)" fill="rgb(255,255,255)" stroke="none" stroke-width="1"/><circle id="e7u0irdwj12y50" r="33.400000" transform="matrix(1 0 0 1 962.20000000000005 42.50000000000000)" fill="rgb(255,255,255)" stroke="none" stroke-width="1"/><circle id="e7u0irdwj12y51" r="33.400000" transform="matrix(1 0 0 1 847 42.50000000000000)" fill="rgb(255,255,255)" stroke="none" stroke-width="1"/><circle id="e7u0irdwj12y52" r="28.900000" transform="matrix(1 0 0 1 928.79999999999995 42.50000000000000)" fill="rgb(255,255,255)" stroke="none" stroke-width="1"/><circle id="e7u0irdwj12y53" r="28.900000" transform="matrix(1 0 0 1 875.79999999999995 42.50000000000000)" fill="rgb(255,255,255)" stroke="none" stroke-width="1"/><circle id="e7u0irdwj12y54" r="28.900000" transform="matrix(1 0 0 1 813.60000000000002 42.50000000000000)" fill="rgb(255,255,255)" stroke="none" stroke-width="1"/><circle id="e7u0irdwj12y55" r="24.100000" transform="matrix(1 0 0 1 899.89999999999998 42.50000000000000)" fill="rgb(255,255,255)" stroke="none" stroke-width="1"/><circle id="e7u0irdwj12y56" r="24.100000" transform="matrix(1 0 0 1 784.70000000000005 42.50000000000000)" fill="rgb(255,255,255)" stroke="none" stroke-width="1"/><circle id="e7u0irdwj12y57" r="21.700000" transform="matrix(1 0 0 1 760.70000000000005 42.50000000000000)" fill="rgb(255,255,255)" stroke="none" stroke-width="1"/><circle id="e7u0irdwj12y58" r="21.700000" transform="matrix(1 0 0 1 658.29999999999995 42.50000000000000)" fill="rgb(255,255,255)" stroke="none" stroke-width="1"/><circle id="e7u0irdwj12y59" r="27.200000" transform="matrix(1 0 0 1 636.60000000000002 42.50000000000000)" fill="rgb(255,255,255)" stroke="none" stroke-width="1"/><circle id="e7u0irdwj12y60" r="30.300000" transform="matrix(1 0 0 1 609.39999999999998 42.50000000000000)" fill="rgb(255,255,255)" stroke="none" stroke-width="1"/><circle id="e7u0irdwj12y61" r="25.900000" transform="matrix(1 0 0 1 579.10000000000002 42.50000000000000)" fill="rgb(255,255,255)" stroke="none" stroke-width="1"/><circle id="e7u0irdwj12y62" r="29.500000" transform="matrix(1 0 0 1 553.20000000000005 42.50000000000000)" fill="rgb(255,255,255)" stroke="none" stroke-width="1"/><circle id="e7u0irdwj12y63" r="25.900000" transform="matrix(1 0 0 1 523.70000000000005 42.50000000000000)" fill="rgb(255,255,255)" stroke="none" stroke-width="1"/><circle id="e7u0irdwj12y64" r="24.100000" transform="matrix(1 0 0 1 497.80000000000001 42.50000000000000)" fill="rgb(255,255,255)" stroke="none" stroke-width="1"/><circle id="e7u0irdwj12y65" r="25.900000" transform="matrix(1 0 0 1 473.69999999999999 42.50000000000000)" fill="rgb(255,255,255)" stroke="none" stroke-width="1"/><circle id="e7u0irdwj12y66" r="21.700000" transform="matrix(1 0 0 1 447.80000000000001 42.50000000000000)" fill="rgb(255,255,255)" stroke="none" stroke-width="1"/><circle id="e7u0irdwj12y67" r="27.200000" transform="matrix(1 0 0 1 426.10000000000002 42.50000000000000)" fill="rgb(255,255,255)" stroke="none" stroke-width="1"/><circle id="e7u0irdwj12y68" r="30.300000" transform="matrix(1 0 0 1 398.89999999999998 42.50000000000000)" fill="rgb(255,255,255)" stroke="none" stroke-width="1"/><circle id="e7u0irdwj12y69" r="28.900000" transform="matrix(1 0 0 1 368.60000000000002 42.50000000000000)" fill="rgb(255,255,255)" stroke="none" stroke-width="1"/><circle id="e7u0irdwj12y70" r="20" transform="matrix(1 0 0 1 339.80000000000001 42.50000000000000)" fill="rgb(255,255,255)" stroke="none" stroke-width="1"/><circle id="e7u0irdwj12y71" r="24.100000" transform="matrix(1 0 0 1 319.80000000000001 42.50000000000000)" fill="rgb(255,255,255)" stroke="none" stroke-width="1"/><circle id="e7u0irdwj12y72" r="25.900000" transform="matrix(1 0 0 1 295.69999999999999 42.50000000000000)" fill="rgb(255,255,255)" stroke="none" stroke-width="1"/><circle id="e7u0irdwj12y73" r="24.100000" transform="matrix(1 0 0 1 269.80000000000001 42.50000000000000)" fill="rgb(255,255,255)" stroke="none" stroke-width="1"/><ellipse id="e7u0irdwj12y74" rx="20" ry="20" transform="matrix(0.16020000000000 -0.98710000000000 0.98710000000000 0.16020000000000 245.72989000000004 42.52703000000005)" fill="rgb(255,255,255)" stroke="none" stroke-width="1"/><circle id="e7u0irdwj12y75" r="25.900000" transform="matrix(1 0 0 1 225.69999999999999 42.50000000000000)" fill="rgb(255,255,255)" stroke="none" stroke-width="1"/><circle id="e7u0irdwj12y76" r="24.100000" transform="matrix(1 0 0 1 199.80000000000001 42.50000000000000)" fill="rgb(255,255,255)" stroke="none" stroke-width="1"/><circle id="e7u0irdwj12y77" r="28.900000" transform="matrix(1 0 0 1 175.80000000000001 42.50000000000000)" fill="rgb(255,255,255)" stroke="none" stroke-width="1"/><circle id="e7u0irdwj12y78" r="25.900000" transform="matrix(1 0 0 1 146.90000000000001 42.50000000000000)" fill="rgb(255,255,255)" stroke="none" stroke-width="1"/><circle id="e7u0irdwj12y79" r="25.900000" transform="matrix(1 0 0 1 739 42.50000000000000)" fill="rgb(255,255,255)" stroke="none" stroke-width="1"/><circle id="e7u0irdwj12y80" r="25.900000" transform="matrix(1 0 0 1 684.20000000000005 42.50000000000000)" fill="rgb(255,255,255)" stroke="none" stroke-width="1"/><circle id="e7u0irdwj12y81" r="28.900000" transform="matrix(1 0 0 1 713.10000000000002 42.50000000000000)" fill="rgb(255,255,255)" stroke="none" stroke-width="1"/><circle id="e7u0irdwj12y82" r="20" transform="matrix(1 0 0 1 22.10000000000000 42.50000000000000)" fill="rgb(255,255,255)" stroke="none" stroke-width="1"/><circle id="e7u0irdwj12y83" r="25.900000" transform="matrix(1 0 0 1 42.20000000000000 42.50000000000000)" fill="rgb(255,255,255)" stroke="none" stroke-width="1"/><circle id="e7u0irdwj12y84" r="24.100000" transform="matrix(1 0 0 1 68.09999999999999 42.50000000000000)" fill="rgb(255,255,255)" stroke="none" stroke-width="1"/><circle id="e7u0irdwj12y85" r="28.900000" transform="matrix(1 0 0 1 92.09999999999999 42.50000000000000)" fill="rgb(255,255,255)" stroke="none" stroke-width="1"/><circle id="e7u0irdwj12y86" r="25.900000" transform="matrix(1 0 0 1 121 42.50000000000000)" fill="rgb(255,255,255)" stroke="none" stroke-width="1"/></g></svg>