<svg xmlns="http://www.w3.org/2000/svg" xmlns:xlink="http://www.w3.org/1999/xlink" viewBox="0 0 155.11 136.78">
  <defs>
    <style>
      .a {
        fill: url(#a);
      }

      .b {
        fill: #fff;
      }
    </style>
    <linearGradient id="a" x1="5798.43" y1="-63.58" x2="5798.43" y2="135.32" gradientTransform="matrix(-1, 0, 0, 1, 5932.67, 0)" gradientUnits="userSpaceOnUse">
      <stop offset="0" stop-color="#4583c4"/>
      <stop offset="0" stop-color="#fff" stop-opacity="0.15"/>
      <stop offset="1" stop-color="#fff"/>
    </linearGradient>
  </defs>
  <g>
    <polyline class="a" points="155.11 1.74 113.38 51.12 113.38 136.78 155.11 136.78"/>
    <path class="b" d="M.28,136.78A15,15,0,0,1,0,133.92a15.33,15.33,0,0,1,9.4-14.14c0-.39-.06-.78-.06-1.18a15.31,15.31,0,0,1,15.14-15.31A15.61,15.61,0,0,1,47.19,91.51a23.62,23.62,0,0,1,17.58-7.82,24.26,24.26,0,0,1,4,.34A23.72,23.72,0,0,1,91.41,67.45c.71,0,1.42,0,2.11.1a39.71,39.71,0,0,1,18.55-22.92A23.71,23.71,0,0,1,132.38,15,15.58,15.58,0,0,1,155.11,1.74a13.69,13.69,0,0,1-.26,2.65,13.92,13.92,0,0,1-5,8.19c0,.12,0,.24,0,.37a13.9,13.9,0,0,1-6.29,11.63,13.89,13.89,0,0,1-12.22,10.57,13.86,13.86,0,0,1-8.21,5.08,13.94,13.94,0,0,1-6.12,8.43c0,.25,0,.49,0,.74A13.86,13.86,0,0,1,115,56.8a11.71,11.71,0,0,1,1.19-.06,13.91,13.91,0,0,1,0,27.82c-.46,0-.92,0-1.37-.07a24,24,0,0,1,2.18,10c0,.32,0,.63,0,.94a24.14,24.14,0,0,1,17.75,17.67,24.07,24.07,0,0,1,20.43,5.57v18.11H.28Z"/>
  </g>
</svg>
