<svg xmlns="http://www.w3.org/2000/svg" xmlns:xlink="http://www.w3.org/1999/xlink" viewBox="0 0 155.11 136.78">
  <defs>
    <style>
      .a {
        fill: url(#a);
      }

      .b {
        fill: #fff;
      }
    </style>
    <linearGradient id="a" x1="72.29" y1="-63.58" x2="72.29" y2="135.32" gradientUnits="userSpaceOnUse">
      <stop offset="0" stop-color="#4583c4"/>
      <stop offset="0" stop-color="#fff" stop-opacity="0.15"/>
      <stop offset="1" stop-color="#fff"/>
    </linearGradient>
  </defs>
  <g>
    <polyline class="a" points="0 1.74 61.39 71.38 144.58 129.35 41.73 136.78 0 136.78"/>
    <path class="b" d="M145.7,119.78c0-.39.06-.78.06-1.18a15.31,15.31,0,0,0-15.14-15.31,15.6,15.6,0,0,0-22.7-11.78,23.65,23.65,0,0,0-17.59-7.82,24.35,24.35,0,0,0-4,.34A23.7,23.7,0,0,0,63.7,67.45c-.72,0-1.42,0-2.12.1A39.69,39.69,0,0,0,43,44.63a24,24,0,0,0,.78-6A23.7,23.7,0,0,0,22.73,15,15.62,15.62,0,0,0,7.14,0,15.44,15.44,0,0,0,0,1.74,13.69,13.69,0,0,0,.26,4.39a13.91,13.91,0,0,0,5,8.19c0,.12,0,.24,0,.37A13.9,13.9,0,0,0,11.5,24.58,13.87,13.87,0,0,0,23.72,35.15a13.86,13.86,0,0,0,8.21,5.08A14,14,0,0,0,38,48.66c0,.25,0,.49,0,.74a13.86,13.86,0,0,0,2.14,7.4A11.71,11.71,0,0,0,39,56.74a13.91,13.91,0,0,0,0,27.82c.46,0,.91,0,1.36-.07a24,24,0,0,0-2.17,10c0,.32,0,.63,0,.94A24.13,24.13,0,0,0,20.42,113.1,24,24,0,0,0,0,118.67v18.11H154.83a15,15,0,0,0,.28-2.86A15.33,15.33,0,0,0,145.7,119.78ZM42.82,108.41A17.26,17.26,0,0,1,59.89,88.66a16.68,16.68,0,0,1,2.56.2,12.78,12.78,0,0,1,21.43,1.82,16.18,16.18,0,0,0-19.25-1.36,17.22,17.22,0,0,1,6.24,3.28,21.87,21.87,0,0,0-28.05,15.81Zm74.95,7.77a26.1,26.1,0,0,0-23-7.52,27.9,27.9,0,0,1,7.2,8.83,35.33,35.33,0,0,0-51.69,5.75,27.83,27.83,0,0,1,37.87-18.57,28.34,28.34,0,0,1,3.67,1.92,20.64,20.64,0,0,1,30.7,16.27A26.24,26.24,0,0,0,117.77,116.18Z"/>
  </g>
</svg>
