<svg xmlns="http://www.w3.org/2000/svg" xmlns:xlink="http://www.w3.org/1999/xlink" viewBox="0 0 242.29 178.85">
  <defs>
    <style>
      .a {
        fill: url(#a);
      }

      .b {
        fill: #fff;
      }
    </style>
    <linearGradient id="a" x1="121.15" y1="-23.19" x2="121.15" y2="215.32" gradientUnits="userSpaceOnUse">
      <stop offset="0" stop-color="#4583c4"/>
      <stop offset="0" stop-color="#fff" stop-opacity="0.15"/>
      <stop offset="1" stop-color="#fff"/>
    </linearGradient>
  </defs>
  <g>
    <path class="a" d="M235.9,178.85a33.4,33.4,0,0,0-13.16-50,26.57,26.57,0,0,0,.31-4,25.84,25.84,0,0,0-6.85-17.55A33.42,33.42,0,0,0,195.81,64a25,25,0,0,0,.2-3.14,25.93,25.93,0,0,0-21.67-25.57,33.31,33.31,0,0,0-10.27-16.48,25.92,25.92,0,0,0-50.84,7.17c0,.35,0,.71,0,1.06a33.43,33.43,0,0,0-2.2,29.32,33.42,33.42,0,0,0-23.78,32c0,.18,0,.36,0,.53a33.41,33.41,0,0,0-32,30.67A25.9,25.9,0,0,0,41,129.67,33.4,33.4,0,0,0,4.44,178.85Z"/>
    <path class="b" d="M222.74,128.81a26.57,26.57,0,0,0,.31-4,25.84,25.84,0,0,0-6.85-17.55A33.42,33.42,0,0,0,195.81,64a25,25,0,0,0,.2-3.14,25.93,25.93,0,0,0-21.67-25.57,33.31,33.31,0,0,0-10.27-16.48A25.94,25.94,0,0,0,146.94,1.21a23,23,0,0,0-5.81,35.07,23,23,0,0,0,.51,22.09,23,23,0,0,0,1.18,24.86,23.08,23.08,0,0,0-13.94,14.84,39.92,39.92,0,0,0-23.36,52,23,23,0,0,0-20.74,28.82H235.9a33.4,33.4,0,0,0-13.16-50Zm-74.6-65.14a17,17,0,0,1,23.72-3.77,16.16,16.16,0,0,1,1.92,1.65,12.57,12.57,0,0,1,16,13.84,15.93,15.93,0,0,0-14.55-12.21,16.88,16.88,0,0,1,3.08,6.22,21.75,21.75,0,0,0-4.77-4.76,21.53,21.53,0,0,0-26.72,1.13A17,17,0,0,1,148.14,63.67Zm3.48,29.8a20.44,20.44,0,0,1,24.08,6.42,27.56,27.56,0,0,1,31.42,31.3,35,35,0,0,0-44.9-25.3,27.56,27.56,0,0,1,10-5.26,25.89,25.89,0,0,0-30.82,2.18A20.33,20.33,0,0,1,151.62,93.47Zm-10.35,33.12A21.89,21.89,0,0,0,120,143.47a18.77,18.77,0,0,1-.18-2.51A17.25,17.25,0,0,1,137,123.71a16.68,16.68,0,0,1,2.56.21A12.76,12.76,0,0,1,161,125.74a16.18,16.18,0,0,0-19.25-1.36,17.27,17.27,0,0,1,6.25,3.28A21.89,21.89,0,0,0,141.27,126.59Z"/>
  </g>
</svg>
