<svg xmlns="http://www.w3.org/2000/svg" xmlns:xlink="http://www.w3.org/1999/xlink" viewBox="0 0 289.99 142.65">
  <defs>
    <style>
      .a {
        fill: url(#a);
      }

      .b {
        fill: #fff;
      }
    </style>
    <linearGradient id="a" x1="145" y1="-59.39" x2="145" y2="179.12" gradientUnits="userSpaceOnUse">
      <stop offset="0" stop-color="#4583c4"/>
      <stop offset="0" stop-color="#fff" stop-opacity="0.15"/>
      <stop offset="1" stop-color="#fff"/>
    </linearGradient>
  </defs>
  <g>
    <path class="a" d="M286.65,142.65a29.26,29.26,0,0,0-35.45-41.26,33.27,33.27,0,0,0-22.43-8.65h0V92.6a33.41,33.41,0,0,0-25.88-32.54c0-.22,0-.43,0-.64A33.35,33.35,0,0,0,188.63,32,33.41,33.41,0,0,0,157.07,9.57l-.85,0a25.92,25.92,0,0,0-40.47.27,34.51,34.51,0,0,0-4.34-.29A33.43,33.43,0,0,0,79,51.19,33.41,33.41,0,0,0,54.59,83.36a34,34,0,0,0,.83,7.39,33.4,33.4,0,0,0-22.27,11.47,31.24,31.24,0,0,0-3.89-.26A29.27,29.27,0,0,0,2.32,142.65Z"/>
    <path class="b" d="M196.26,103.77a40,40,0,0,0-22.84-30.86,39.79,39.79,0,0,0-13.89-27.16,39.84,39.84,0,0,0-3.31-36.16h0a25.92,25.92,0,0,0-40.47.27,34.51,34.51,0,0,0-4.34-.29A33.4,33.4,0,0,0,83,25.44a41,41,0,0,0-.38,5.46,39.75,39.75,0,0,0,8.46,24.55,39.91,39.91,0,0,0-10.91,41.1,40,40,0,0,0-21.84,46.1H225.89c0-.1,0-.21,0-.31A39.92,39.92,0,0,0,196.26,103.77ZM104.37,30.86a12.57,12.57,0,0,1,14.3-5.51,17.84,17.84,0,0,1,1.92-1.64,17,17,0,0,1,23.72,3.76,16.63,16.63,0,0,1,1.31,2.1,21.53,21.53,0,0,0-26.73-1.12,21.07,21.07,0,0,0-4.76,4.76A16.77,16.77,0,0,1,117.21,27,15.92,15.92,0,0,0,102.66,39.2,12.45,12.45,0,0,1,104.37,30.86Zm14.31,32.51a27.9,27.9,0,0,1,4.11.32,20.43,20.43,0,0,1,34.29,2.92,25.9,25.9,0,0,0-30.83-2.18,27.4,27.4,0,0,1,10,5.26A35,35,0,0,0,91.36,95a28.18,28.18,0,0,1-.29-4A27.61,27.61,0,0,1,118.68,63.37Zm-3.07,39.33a19.81,19.81,0,0,0-5.28,3.31,15.69,15.69,0,0,1,4.06-5,14.71,14.71,0,0,0-13,4.24A14.56,14.56,0,0,0,98.76,109a11.61,11.61,0,0,1,17.29-9.16,15.09,15.09,0,0,1,2.07-1.09,15.77,15.77,0,0,1,21.34,10.46A19.93,19.93,0,0,0,115.61,102.7Zm64.9,4.57a21.87,21.87,0,0,0-28-15.81,17.31,17.31,0,0,1,6.24-3.28,16.17,16.17,0,0,0-14.93-1.3,16,16,0,0,0-4.31,2.66,12.77,12.77,0,0,1,21.42-1.82,16.68,16.68,0,0,1,2.56-.2,17.26,17.26,0,0,1,17.07,19.75Z"/>
  </g>
</svg>
