<?xml version="1.0" encoding="utf-8"?>
<!-- Generator: Adobe Illustrator 24.3.0, SVG Export Plug-In . SVG Version: 6.00 Build 0)  -->
<svg version="1.1" id="Layer_1" xmlns="http://www.w3.org/2000/svg" xmlns:xlink="http://www.w3.org/1999/xlink" x="0px" y="0px"
	 viewBox="0 0 2245 85" style="enable-background:new 0 0 2245 85;" xml:space="preserve">
<style type="text/css">
	.st0{fill:#FFFFFF;}
</style>
<g>
	<circle class="st0" cx="1163.9" cy="42.2" r="30.6"/>
	<circle class="st0" cx="1194.6" cy="42.5" r="33.4"/>
	<circle class="st0" cx="1124.9" cy="42.5" r="33.4"/>
	<circle class="st0" cx="1228" cy="42.5" r="25.9"/>
	<circle class="st0" cx="1253.9" cy="42.5" r="28.9"/>
	<circle class="st0" cx="1282.8" cy="42.5" r="33.4"/>
	<circle class="st0" cx="1398" cy="42.5" r="33.4"/>
	<circle class="st0" cx="1316.2" cy="42.5" r="28.9"/>
	<circle class="st0" cx="1369.1" cy="42.5" r="28.9"/>
	<circle class="st0" cx="1431.4" cy="42.5" r="28.9"/>
	<circle class="st0" cx="1345" cy="42.5" r="24.1"/>
	<circle class="st0" cx="1460.2" cy="42.5" r="24.1"/>
	<circle class="st0" cx="1484.3" cy="42.5" r="21.7"/>
	<circle class="st0" cx="1586.7" cy="42.5" r="21.7"/>
	<circle class="st0" cx="1608.4" cy="42.5" r="27.2"/>
	<circle class="st0" cx="1635.5" cy="42.5" r="30.3"/>
	<circle class="st0" cx="1665.8" cy="42.5" r="25.9"/>
	<circle class="st0" cx="1691.7" cy="42.5" r="29.5"/>
	<circle class="st0" cx="1721.3" cy="42.5" r="25.9"/>
	<circle class="st0" cx="1747.2" cy="42.5" r="24.1"/>
	<circle class="st0" cx="1771.3" cy="42.5" r="25.9"/>
	<circle class="st0" cx="1797.2" cy="42.5" r="21.7"/>
	<circle class="st0" cx="1818.8" cy="42.5" r="27.2"/>
	<circle class="st0" cx="1846" cy="42.5" r="30.3"/>
	<circle class="st0" cx="1876.3" cy="42.5" r="28.9"/>
	<circle class="st0" cx="1905.2" cy="42.5" r="20"/>
	<circle class="st0" cx="1925.2" cy="42.5" r="24.1"/>
	<circle class="st0" cx="1949.2" cy="42.5" r="25.9"/>
	<circle class="st0" cx="1975.2" cy="42.5" r="24.1"/>
	<circle class="st0" cx="1999.2" cy="42.5" r="20"/>
	<circle class="st0" cx="2019.2" cy="42.5" r="25.9"/>
	
		<ellipse transform="matrix(0.3791 -0.9254 0.9254 0.3791 1230.5729 1918.8397)" class="st0" cx="2045.1" cy="42.4" rx="24.1" ry="24.1"/>
	
		<ellipse transform="matrix(0.3745 -0.9272 0.9272 0.3745 1254.8502 1945.1578)" class="st0" cx="2069.2" cy="42.5" rx="28.9" ry="28.9"/>
	<circle class="st0" cx="2098.1" cy="42.5" r="25.9"/>
	<circle class="st0" cx="2222.9" cy="42.5" r="20"/>
	<circle class="st0" cx="2202.9" cy="42.5" r="25.9"/>
	<circle class="st0" cx="2176.9" cy="42.5" r="24.1"/>
	<circle class="st0" cx="2152.9" cy="42.5" r="28.9"/>
	<circle class="st0" cx="2124" cy="42.5" r="25.9"/>
	<circle class="st0" cx="1506" cy="42.5" r="25.9"/>
	<circle class="st0" cx="1560.8" cy="42.5" r="25.9"/>
	<circle class="st0" cx="1531.9" cy="42.5" r="28.9"/>
	<circle class="st0" cx="1081.3" cy="42.5" r="30.9"/>
	
		<ellipse transform="matrix(0.3686 -0.9296 0.9296 0.3686 623.7255 1003.1986)" class="st0" cx="1050.3" cy="42.5" rx="33.4" ry="33.4"/>
	
		<ellipse transform="matrix(0.1891 -0.982 0.982 0.1891 783.0053 1033.0425)" class="st0" cx="1017" cy="42.4" rx="25.9" ry="25.9"/>
	<circle class="st0" cx="991.1" cy="42.5" r="28.9"/>
	<circle class="st0" cx="962.2" cy="42.5" r="33.4"/>
	<circle class="st0" cx="847" cy="42.5" r="33.4"/>
	<circle class="st0" cx="928.8" cy="42.5" r="28.9"/>
	<circle class="st0" cx="875.8" cy="42.5" r="28.9"/>
	<circle class="st0" cx="813.6" cy="42.5" r="28.9"/>
	<circle class="st0" cx="899.9" cy="42.5" r="24.1"/>
	<circle class="st0" cx="784.7" cy="42.5" r="24.1"/>
	<circle class="st0" cx="760.7" cy="42.5" r="21.7"/>
	<circle class="st0" cx="658.3" cy="42.5" r="21.7"/>
	<circle class="st0" cx="636.6" cy="42.5" r="27.2"/>
	<circle class="st0" cx="609.4" cy="42.5" r="30.3"/>
	<circle class="st0" cx="579.1" cy="42.5" r="25.9"/>
	<circle class="st0" cx="553.2" cy="42.5" r="29.5"/>
	
		<ellipse transform="matrix(0.2238 -0.9746 0.9746 0.2238 365.0665 543.4025)" class="st0" cx="523.7" cy="42.5" rx="25.9" ry="25.9"/>
	
		<ellipse transform="matrix(0.2238 -0.9746 0.9746 0.2238 344.9633 518.1595)" class="st0" cx="497.8" cy="42.5" rx="24.1" ry="24.1"/>
	<circle class="st0" cx="473.7" cy="42.5" r="25.9"/>
	<circle class="st0" cx="447.8" cy="42.5" r="21.7"/>
	<circle class="st0" cx="426.1" cy="42.5" r="27.2"/>
	<circle class="st0" cx="398.9" cy="42.5" r="30.3"/>
	<circle class="st0" cx="368.6" cy="42.5" r="28.9"/>
	<circle class="st0" cx="339.8" cy="42.5" r="20"/>
	<circle class="st0" cx="319.8" cy="42.5" r="24.1"/>
	<circle class="st0" cx="295.7" cy="42.5" r="25.9"/>
	<circle class="st0" cx="269.8" cy="42.5" r="24.1"/>
	<ellipse transform="matrix(0.3162 -0.9487 0.9487 0.3162 127.6751 262.1971)" class="st0" cx="245.7" cy="42.5" rx="20" ry="20"/>
	<circle class="st0" cx="225.7" cy="42.5" r="25.9"/>
	<circle class="st0" cx="199.8" cy="42.5" r="24.1"/>
	<circle class="st0" cx="175.8" cy="42.5" r="28.9"/>
	<circle class="st0" cx="146.9" cy="42.5" r="25.9"/>
	<circle class="st0" cx="739" cy="42.5" r="25.9"/>
	<circle class="st0" cx="684.2" cy="42.5" r="25.9"/>
	<circle class="st0" cx="713.1" cy="42.5" r="28.9"/>
	<circle class="st0" cx="22.1" cy="42.5" r="20"/>
	<circle class="st0" cx="42.2" cy="42.5" r="25.9"/>
	<circle class="st0" cx="68.1" cy="42.5" r="24.1"/>
	<circle class="st0" cx="92.1" cy="42.5" r="28.9"/>
	<circle class="st0" cx="121" cy="42.5" r="25.9"/>
</g>
</svg>
