<svg xmlns="http://www.w3.org/2000/svg" xmlns:xlink="http://www.w3.org/1999/xlink" viewBox="0 0 617.82 96.34"><defs><style>.cls-1{fill:url(#linear-gradient);}.cls-2{fill:url(#linear-gradient-2);}.cls-3{fill:url(#linear-gradient-3);}</style><linearGradient id="linear-gradient" x1="308.91" y1="-0.37" x2="308.91" y2="96.4" gradientUnits="userSpaceOnUse"><stop offset="0" stop-color="#f7ec13"/><stop offset="1" stop-color="#1c5a2d"/></linearGradient><linearGradient id="linear-gradient-2" x1="308.91" y1="9.92" x2="308.91" y2="98.28" xlink:href="#linear-gradient"/><linearGradient id="linear-gradient-3" x1="308.91" y1="30.96" x2="308.91" y2="96.94" xlink:href="#linear-gradient"/></defs><g id="Layer_2" data-name="Layer 2"><g id="Layer_1-2" data-name="Layer 1"><g id="footer_ground"><path id="footer_ground_back" class="cls-1" d="M463.37,0c-60.46,0-86.19,22.37-154.46,22.37S214.91,0,154.46,0,68.27,22.37,0,22.37v74H617.82v-74C549.55,22.37,523.82,0,463.37,0Z"/><path id="footer_ground_middle" class="cls-2" d="M308.91,49C172.37,49,120.9,9.1,0,9.1V96.34H617.82V9.1C496.92,9.1,445.45,49,308.91,49Z"/><path id="footer_ground_front" class="cls-3" d="M308.91,31.39C188,31.39,136.54,63.87,0,63.87V96.34H617.82V63.87C481.28,63.87,429.82,31.39,308.91,31.39Z"/></g></g></g></svg>