<?xml version="1.0" encoding="utf-8"?>
<!-- Generator: Adobe Illustrator 24.3.0, SVG Export Plug-In . SVG Version: 6.00 Build 0)  -->
<svg version="1.1" id="Layer_1" xmlns="http://www.w3.org/2000/svg" xmlns:xlink="http://www.w3.org/1999/xlink" x="0px" y="0px"
	 viewBox="0 0 80 173" style="enable-background:new 0 0 80 173;" xml:space="preserve">
<style type="text/css">
	.st0{fill:url(#SVGID_1_);}
</style>
<linearGradient id="SVGID_1_" gradientUnits="userSpaceOnUse" x1="40" y1="-27.9805" x2="40" y2="170.2111">
	<stop  offset="0" style="stop-color:#4582C3"/>
	<stop  offset="0" style="stop-color:#FFFFFF;stop-opacity:0.15"/>
	<stop  offset="1" style="stop-color:#FFFFFF"/>
</linearGradient>
<path class="st0" d="M56.3,139.3c-2.5,0-4.8,0.4-7.1,1.1c-4.3-5.6-11.1-9.3-18.8-9.3c-1.4,0-2.7,0.1-4.1,0.4
	c-0.8-1.4-1.7-2.7-2.6-3.9c1.7-3.3,2.6-6.9,2.6-10.9c0-9.5-5.6-17.7-13.6-21.5c0.6-2,0.9-4.2,0.9-6.4c0-1.8-0.2-3.6-0.6-5.4
	c5.5-3.6,9.2-9.8,9.2-16.9c0-3.6-0.9-7-2.6-9.9c2.9-3.9,4.6-8.8,4.6-14.1c0-8-3.9-15-10-19.3c1.2-2.2,1.9-4.8,1.9-7.5
	c0-8.6-7-15.6-15.6-15.6c-0.2,0-0.4,0-0.5,0v0V173h77.8c1.4-3,2.2-6.4,2.2-10C80,149.9,69.4,139.3,56.3,139.3z"/>
</svg>
