<svg
  version="1.1"
  id="header_left_bottom_svg"
  xmlns="http://www.w3.org/2000/svg"
  xmlns:xlink="http://www.w3.org/1999/xlink"
	x="0px"
  y="0px"
  viewBox="0 0 640 37"
  style="enable-background:new 0 0 640 37;"
  xml:space="preserve">

  <style type="text/css">
    .st0{fill:url(#header_left_bottom_bg);}
    .st1{opacity:0.75;fill:#FFFFFF;}
  </style>

  <linearGradient id="header_left_bottom_bg" gradientUnits="userSpaceOnUse" x1="320" y1="-162.5455" x2="320" y2="36.7161">
    <stop  offset="0" style="stop-color:#4582C3"/>
    <stop  offset="0" style="stop-color:#FFFFFF;stop-opacity:0.15"/>
    <stop  offset="1" style="stop-color:#FFFFFF"/>
  </linearGradient>

  <path id="header_left_bottom_base" class="st0" d="M10.8,17.2C18,9.9,28,5.4,39,5.4c10.1,0,19.4,3.8,26.4,10.1c5.8-3.3,12.4-5.1,19.5-5.1
    c8.3,0,15.9,2.5,22.3,6.8c1.5-0.2,3.1-0.3,4.7-0.3c5.5,0,10.8,1.1,15.6,3.2c5.4-2.7,11.4-4.2,17.8-4.2c6.1,0,11.8,1.4,17,3.8
    c6.4-4.5,14.2-7.1,22.7-7.1c8.3,0,16,2.6,22.4,6.9c3.1-0.8,6.3-1.2,9.6-1.2c4.3,0,8.4,0.7,12.3,2c7.2-7.5,17.3-12.1,28.5-12.1
    c10,0,19.2,3.7,26.2,9.9c4.1-1.4,8.5-2.2,13.1-2.2c2.4,0,4.8,0.2,7.1,0.7C311.4,6.5,323.1,0,336.3,0c12.4,0,23.4,5.7,30.7,14.6
    c5.4-2.7,11.5-4.3,17.9-4.3c8.3,0,16,2.5,22.3,6.9c7.2-7.3,17.2-11.8,28.2-11.8c10.1,0,19.4,3.8,26.4,10.1
    c5.8-3.3,12.4-5.1,19.5-5.1c8.3,0,15.9,2.5,22.3,6.8c1.5-0.2,3.1-0.3,4.7-0.3c5.5,0,10.8,1.1,15.6,3.2c5.4-2.7,11.4-4.2,17.8-4.2
    c6.1,0,11.8,1.4,17,3.8c6.4-4.5,14.2-7.1,22.7-7.1c8.3,0,16,2.6,22.4,6.9c3.1-0.8,6.3-1.2,9.6-1.2c4.3,0,8.4,0.7,12.3,2
    c4-4.1,8.8-7.3,14.2-9.4V37H332.1h-35.4H0l0-25C3.9,13.2,7.5,14.9,10.8,17.2z"/>
  
  <path id="header_left_bottom_highlight" class="st1" d="M0,12c3.9,1.2,7.5,2.9,10.8,5.2C18,9.9,28,5.4,39,5.4c10.1,0,19.4,3.8,26.4,10.1
    c5.8-3.3,12.4-5.1,19.5-5.1c8.3,0,15.9,2.5,22.3,6.8c1.5-0.2,3.1-0.3,4.7-0.3c5.5,0,10.8,1.1,15.6,3.2c5.4-2.7,11.4-4.2,17.8-4.2
    c6.1,0,11.8,1.4,17,3.8c6.4-4.5,14.2-7.1,22.7-7.1c8.3,0,16,2.6,22.4,6.9c3.1-0.8,6.3-1.2,9.6-1.2c4.3,0,8.4,0.7,12.3,2
    c7.2-7.5,17.3-12.1,28.5-12.1c10,0,19.2,3.7,26.2,9.9c4.1-1.4,8.5-2.2,13.1-2.2c2.4,0,4.8,0.2,7.1,0.6C311.4,6.5,323.1,0,336.3,0
    c12.4,0,23.4,5.7,30.7,14.6c5.4-2.7,11.5-4.3,17.9-4.3c8.3,0,16,2.5,22.3,6.9c7.2-7.3,17.2-11.8,28.2-11.8
    c10.1,0,19.4,3.8,26.4,10.1c5.8-3.3,12.4-5.1,19.5-5.1c8.3,0,15.9,2.5,22.3,6.8c1.5-0.2,3.1-0.3,4.7-0.3c5.5,0,10.8,1.1,15.6,3.2
    c5.4-2.7,11.4-4.2,17.8-4.2c6.1,0,11.8,1.4,17,3.8c6.4-4.5,14.2-7.1,22.7-7.1c8.3,0,16,2.6,22.4,6.9c3.1-0.8,6.3-1.2,9.6-1.2
    c4.3,0,8.4,0.7,12.3,2c4-4.1,8.8-7.3,14.2-9.4v15c-1.7-0.2-3.3-0.6-4.9-1.2c-2.8,2.2-6.4,3.6-10.2,3.6c-2.9,0-5.6-0.7-8-2
    c-2.9,2.6-6.7,4.1-10.9,4.1c-6.1,0-11.5-3.4-14.4-8.3c-2.8,2.2-6.3,3.5-10.2,3.5c-1.4,0-2.8-0.2-4.1-0.5c-2.8,2-6.2,3.3-9.8,3.3
    c-5.7,0-10.7-2.8-13.7-7.2c-0.9,0.1-1.7,0.2-2.6,0.2c-1.1,0-2.1-0.1-3.1-0.3c-3,3.6-7.6,5.9-12.7,5.9c-3.3,0-6.4-1-9-2.7
    c-2.8,2.2-6.4,3.5-10.2,3.5c-3.5,0-6.7-1.1-9.4-2.9c-2.7,1.9-6,3-9.6,3c-3.8,0-7.3-1.3-10.1-3.4c-1.8,0.7-3.8,1.1-5.8,1.1
    c-3.7,0-7.1-1.2-9.9-3.3c-2.6,1.8-5.8,2.8-9.3,2.8c-5.4,0-10.1-2.6-13.1-6.5c-1.7,0.6-3.5,0.9-5.4,0.9c-3.1,0-6-0.9-8.5-2.4
    c-2.7,1.8-5.9,2.9-9.3,2.9c-3.1,0-6-0.9-8.5-2.4c-3,3.4-7.5,5.6-12.4,5.6c-3.6,0-6.9-1.1-9.6-3c-2.1,1-4.5,1.6-7,1.6
    c-3.4,0-6.6-1-9.2-2.8c-3,4.2-7.9,7-13.5,7c-6.1,0-11.5-3.3-14.4-8.3c-0.7,0.1-1.5,0.2-2.2,0.2c-6.5,0-12.1-3.7-14.8-9.1
    c-1.9,1.2-4.1,2-6.4,2.3c-2.8,5-8.1,8.4-14.2,8.5l-7.7,4.8c-1.9,0.7-3.9,1.2-6.1,1.2c-3.5,0-6.8-1.1-9.5-3c-3,3.2-7.3,5.2-12.1,5.2
    c-2.3,0-4.5-0.5-6.6-1.4c-2.7,1.9-6,3-9.5,3c-4.4,0-8.4-1.7-11.4-4.5c-1.8,0.7-3.7,1-5.7,1c-2.2,0-4.4-0.5-6.3-1.3
    c-2.8,2.2-6.4,3.6-10.2,3.6c-2.9,0-5.6-0.7-8-2c-2.9,2.6-6.7,4.1-10.9,4.1c-6.1,0-11.5-3.4-14.4-8.3c-2.8,2.2-6.3,3.5-10.2,3.5
    c-1.4,0-2.8-0.2-4.1-0.5c-2.8,2-6.2,3.3-9.8,3.3c-5.7,0-10.7-2.8-13.7-7.2c-0.9,0.1-1.7,0.2-2.6,0.2c-1.1,0-2.1-0.1-3.1-0.3
    c-3,3.6-7.6,5.9-12.7,5.9c-3.3,0-6.4-1-9-2.7c-2.8,2.2-6.4,3.5-10.2,3.5c-3.5,0-6.7-1.1-9.4-2.9c-2.7,1.9-6,3-9.6,3
    c-3.8,0-7.3-1.3-10.1-3.4c-1.8,0.7-3.8,1.1-5.8,1.1c-3.7,0-7.1-1.2-9.9-3.3c-2.6,1.8-5.8,2.8-9.3,2.8c-5.4,0-10.1-2.6-13.1-6.5
    c-1.7,0.6-3.5,0.9-5.4,0.9c-3.1,0-6-0.9-8.5-2.4c-2.7,1.8-5.9,2.9-9.3,2.9c-3.1,0-6-0.9-8.5-2.4c-3,3.4-7.5,5.6-12.4,5.6
    c-3.1,0-5.9-0.8-8.4-2.3L0,12z"/>

</svg>
