<svg version="1.1" id="Layer_1" xmlns="http://www.w3.org/2000/svg" xmlns:xlink="http://www.w3.org/1999/xlink" x="0px" y="0px"
	 viewBox="0 0 145 173" style="enable-background:new 0 0 145 173;" xml:space="preserve">
<style type="text/css">
	.st0{fill:url(#SVGID_1_);}
</style>
<linearGradient id="SVGID_1_" gradientUnits="userSpaceOnUse" x1="72.6935" y1="-27.9439" x2="72.6935" y2="170.2116">
	<stop  offset="0" style="stop-color:#4582C3"/>
	<stop  offset="0" style="stop-color:#FFFFFF;stop-opacity:0.15"/>
	<stop  offset="1" style="stop-color:#FFFFFF"/>
</linearGradient>
<path class="st0" d="M130,15.7c0,2.7,0.7,5.2,1.9,7.5c-6,4.3-10,11.3-10,19.3c0,2.7,0.5,5.3,1.3,7.8c-3.6,2.9-5.9,7.3-5.9,12.2
	c0,3,0.9,5.8,2.3,8.2c-5.1,4.4-8.4,10.8-8.4,18.1c0,3.4,0.7,6.6,2,9.5c-4.3,4.3-7,10.2-7,16.8c0,1.1,0.1,2.2,0.2,3.3
	c-2.8,1.8-5.3,4-7.6,6.4c-2.6-0.5-5.3-0.8-8.1-0.8c-10.3,0-19.7,3.9-26.8,10.4c-6.7-5.1-15-8.1-24-8.1c-21.9,0-39.6,17.7-39.6,39.6
	c0,2.4,0.2,4.8,0.6,7.1h144V0.1C136.7,0.4,130,7.3,130,15.7z"/>
</svg>
