<svg version="1.1" id="Layer_1" xmlns="http://www.w3.org/2000/svg" xmlns:xlink="http://www.w3.org/1999/xlink" x="0px" y="0px"
	 viewBox="0 0 100 154" style="enable-background:new 0 0 100 154;" xml:space="preserve">
<style type="text/css">
	.st0{fill:url(#SVGID_1_);}
</style>
<linearGradient id="SVGID_1_" gradientUnits="userSpaceOnUse" x1="50" y1="-48.2013" x2="50" y2="157.132">
	<stop  offset="0" style="stop-color:#4582C3"/>
	<stop  offset="0" style="stop-color:#FFFFFF;stop-opacity:0.15"/>
	<stop  offset="1" style="stop-color:#FFFFFF"/>
</linearGradient>
<path class="st0" d="M84.9,16.2c0,1.1,0.1,2.1,0.3,3.1c-2.6,2.9-4.3,6.6-4.6,10.8c-9,3.2-15.5,11.9-15.5,22.1
	c0,3.7,0.8,7.2,2.4,10.3c-3.4,4.8-5.3,10.6-5.3,16.9c0,6.4,2,12.3,5.5,17.1c-0.1,0-0.3,0-0.4,0c-8.9,0-16.7,4.2-21.9,10.6
	c-2-0.3-4-0.5-6.1-0.5C17.6,106.5,0,124.3,0,146.2c0,2.7,0.3,5.3,0.8,7.8H100V0.6C91.6,0.8,84.9,7.7,84.9,16.2z"/>
</svg>
